<mxfile host="app.diagrams.net" modified="2024-02-16T10:40:20.358Z" agent="Mozilla/5.0 (Windows NT 10.0; Win64; x64) AppleWebKit/537.36 (KHTML, like Gecko) Chrome/121.0.0.0 Safari/537.36" etag="sKC8H-KHTH4VH9jGXjyv" version="23.1.4" type="device">
  <diagram name="Page-1" id="GzhEep5Q_ibeuUsR4K9h">
    <mxGraphModel dx="923" dy="459" grid="1" gridSize="10" guides="1" tooltips="1" connect="1" arrows="1" fold="1" page="1" pageScale="1" pageWidth="850" pageHeight="1100" math="0" shadow="0">
      <root>
        <mxCell id="0" />
        <mxCell id="1" parent="0" />
        <mxCell id="c8IeShYVLaJSIyH0v8J9-6" value="TRAVELLING AGGENCY APP" style="verticalAlign=top;align=left;spacingTop=8;spacingLeft=2;spacingRight=12;shape=cube;size=10;direction=south;fontStyle=4;html=1;whiteSpace=wrap;" vertex="1" parent="1">
          <mxGeometry x="110" y="210" width="680" height="450" as="geometry" />
        </mxCell>
        <mxCell id="c8IeShYVLaJSIyH0v8J9-3" value="PASSENGER CLASS" style="verticalAlign=top;align=left;spacingTop=8;spacingLeft=2;spacingRight=12;shape=cube;size=10;direction=south;fontStyle=4;html=1;whiteSpace=wrap;" vertex="1" parent="1">
          <mxGeometry x="350" y="280" width="180" height="120" as="geometry" />
        </mxCell>
        <mxCell id="c8IeShYVLaJSIyH0v8J9-9" style="edgeStyle=orthogonalEdgeStyle;rounded=0;orthogonalLoop=1;jettySize=auto;html=1;" edge="1" parent="1" source="c8IeShYVLaJSIyH0v8J9-2" target="c8IeShYVLaJSIyH0v8J9-3">
          <mxGeometry relative="1" as="geometry" />
        </mxCell>
        <mxCell id="c8IeShYVLaJSIyH0v8J9-2" value="TRAVEL PACKAGE" style="verticalAlign=top;align=left;spacingTop=8;spacingLeft=2;spacingRight=12;shape=cube;size=10;direction=south;fontStyle=4;html=1;whiteSpace=wrap;" vertex="1" parent="1">
          <mxGeometry x="130" y="280" width="180" height="120" as="geometry" />
        </mxCell>
        <mxCell id="c8IeShYVLaJSIyH0v8J9-4" value="ACTIVITY CLASS" style="verticalAlign=top;align=left;spacingTop=8;spacingLeft=2;spacingRight=12;shape=cube;size=10;direction=south;fontStyle=4;html=1;whiteSpace=wrap;" vertex="1" parent="1">
          <mxGeometry x="450" y="450" width="170" height="130" as="geometry" />
        </mxCell>
        <mxCell id="c8IeShYVLaJSIyH0v8J9-5" value="DESTINATION CLASS" style="verticalAlign=top;align=left;spacingTop=8;spacingLeft=2;spacingRight=12;shape=cube;size=10;direction=south;fontStyle=4;html=1;whiteSpace=wrap;" vertex="1" parent="1">
          <mxGeometry x="190" y="450" width="180" height="120" as="geometry" />
        </mxCell>
        <mxCell id="c8IeShYVLaJSIyH0v8J9-10" style="edgeStyle=orthogonalEdgeStyle;rounded=0;orthogonalLoop=1;jettySize=auto;html=1;entryX=1;entryY=0.889;entryDx=0;entryDy=0;entryPerimeter=0;" edge="1" parent="1" source="c8IeShYVLaJSIyH0v8J9-4" target="c8IeShYVLaJSIyH0v8J9-3">
          <mxGeometry relative="1" as="geometry" />
        </mxCell>
        <mxCell id="c8IeShYVLaJSIyH0v8J9-11" style="edgeStyle=orthogonalEdgeStyle;rounded=0;orthogonalLoop=1;jettySize=auto;html=1;exitX=0;exitY=0;exitDx=120;exitDy=95;exitPerimeter=0;entryX=0;entryY=0;entryDx=0;entryDy=85;entryPerimeter=0;" edge="1" parent="1" source="c8IeShYVLaJSIyH0v8J9-2" target="c8IeShYVLaJSIyH0v8J9-5">
          <mxGeometry relative="1" as="geometry" />
        </mxCell>
      </root>
    </mxGraphModel>
  </diagram>
</mxfile>
